{
	"asset":{
		"generator":"Khronos glTF Blender I/O v4.5.48",
		"version":"2.0"
	},
	"extensionsUsed":[
		"KHR_materials_specular"
	],
	"scene":0,
	"scenes":[
		{
			"name":"Scene",
			"nodes":[
				0
			]
		}
	],
	"nodes":[
		{
			"mesh":0,
			"name":"material",
			"rotation":[
				0.70710688829422,
				0,
				0,
				0.7071066498756409
			]
		}
	],
	"materials":[
		{
			"doubleSided":true,
			"extensions":{
				"KHR_materials_specular":{
					"specularColorFactor":[
						2.0,
						2.0,
						2.0
					]
				}
			},
			"name":"Material.001",
			"normalTexture":{
				"index":0
			},
			"pbrMetallicRoughness":{
				"baseColorTexture":{
					"index":1
				},
				"metallicRoughnessTexture":{
					"index":2
				}
			}
		}
	],
	"meshes":[
		{
			"name":"material",
			"primitives":[
				{
					"attributes":{
						"POSITION":0,
						"NORMAL":1,
						"TEXCOORD_0":2
					},
					"indices":3,
					"material":0
				}
			]
		}
	],
	"textures":[
		{
			"sampler":0,
			"source":0
		},
		{
			"sampler":0,
			"source":1
		},
		{
			"sampler":0,
			"source":2
		}
	],
	"images":[
		{
			"mimeType":"image/png",
			"name":"texture_pbr_20250901_normal",
			"uri":"texture_pbr_20250901_normal.png"
		},
		{
			"mimeType":"image/png",
			"name":"texture_pbr_20250901",
			"uri":"texture_pbr_20250901.png"
		},
		{
			"mimeType":"image/png",
			"name":"texture_pbr_20250901_metallic-texture_pbr_20250901_roughness",
			"uri":"texture_pbr_20250901_metallic-texture_pbr_20250901_roughness.png"
		}
	],
	"accessors":[
		{
			"bufferView":0,
			"componentType":5126,
			"count":312035,
			"max":[
				0.27631300687789917,
				0.18870900571346283,
				0
			],
			"min":[
				-0.3272339999675751,
				-0.26699298620224,
				-1.0522559881210327
			],
			"type":"VEC3"
		},
		{
			"bufferView":1,
			"componentType":5126,
			"count":312035,
			"type":"VEC3"
		},
		{
			"bufferView":2,
			"componentType":5126,
			"count":312035,
			"type":"VEC2"
		},
		{
			"bufferView":3,
			"componentType":5125,
			"count":1494978,
			"type":"SCALAR"
		}
	],
	"bufferViews":[
		{
			"buffer":0,
			"byteLength":3744420,
			"byteOffset":0,
			"target":34962
		},
		{
			"buffer":0,
			"byteLength":3744420,
			"byteOffset":3744420,
			"target":34962
		},
		{
			"buffer":0,
			"byteLength":2496280,
			"byteOffset":7488840,
			"target":34962
		},
		{
			"buffer":0,
			"byteLength":5979912,
			"byteOffset":9985120,
			"target":34963
		}
	],
	"samplers":[
		{
			"magFilter":9729,
			"minFilter":9987
		}
	],
	"buffers":[
		{
			"byteLength":15965032,
			"uri":"Char.bin"
		}
	]
}
